<?xml version="1.0" encoding="utf-8"?>
<!-- Generator: Adobe Illustrator 16.0.4, SVG Export Plug-In . SVG Version: 6.00 Build 0)  -->
<!DOCTYPE svg PUBLIC "-//W3C//DTD SVG 1.1//EN" "http://www.w3.org/Graphics/SVG/1.1/DTD/svg11.dtd">
<svg version="1.1" id="Layer_1" xmlns="http://www.w3.org/2000/svg" xmlns:xlink="http://www.w3.org/1999/xlink" x="0px" y="0px"
	 width="178.5px" height="130px" viewBox="0 0 178.5 130" enable-background="new 0 0 178.5 130" xml:space="preserve">
<path fill="#FFFFFF" stroke="#000000" stroke-width="7.4776" stroke-miterlimit="10" d="M171.082,19.198
	c0,4.925-4.694,8.918-10.484,8.918H17.902c-5.79,0-10.484-3.993-10.484-8.918v-2.78c0-4.925,4.694-8.918,10.484-8.918h142.696
	c5.79,0,10.484,3.993,10.484,8.918V19.198z"/>
<path fill="#FFFFFF" stroke="#000000" stroke-width="7.4776" stroke-miterlimit="10" d="M171.082,65.584
	c0,4.925-4.694,8.919-10.484,8.919H17.902c-5.79,0-10.484-3.994-10.484-8.919v-2.78c0-4.925,4.694-8.918,10.484-8.918h142.696
	c5.79,0,10.484,3.993,10.484,8.918V65.584z"/>
<path fill="#FFFFFF" stroke="#000000" stroke-width="7.4776" stroke-miterlimit="10" d="M171.082,109.821
	c0,4.925-4.694,8.919-10.484,8.919H17.902c-5.79,0-10.484-3.994-10.484-8.919v-2.78c0-4.925,4.694-8.918,10.484-8.918h142.696
	c5.79,0,10.484,3.993,10.484,8.918V109.821z"/>
</svg>
